<svg width="155" height="230" viewBox="0 0 155 230" fill="none" xmlns="http://www.w3.org/2000/svg">
<g id="Group 1">
<g id="Union">
<mask id="path-1-inside-1_98_38" fill="white">
<path fill-rule="evenodd" clip-rule="evenodd" d="M99.6318 77.9695H55.3683V134.865L0 229.63H155L99.6318 134.866V77.9695Z"/>
</mask>
<path d="M55.3683 77.9695V70.9695H48.3683V77.9695H55.3683ZM99.6318 77.9695H106.632V70.9695H99.6318V77.9695ZM55.3683 134.865L61.4123 138.397L62.3683 136.76V134.865H55.3683ZM0 229.63L-6.04398 226.098L-12.1972 236.63H0V229.63ZM155 229.63V236.63H167.197L161.044 226.098L155 229.63ZM99.6318 134.866H92.6318V136.761L93.5878 138.397L99.6318 134.866ZM55.3683 84.9695H99.6318V70.9695H55.3683V84.9695ZM62.3683 134.865V77.9695H48.3683V134.865H62.3683ZM6.04398 233.161L61.4123 138.397L49.3243 131.334L-6.04398 226.098L6.04398 233.161ZM155 222.63H0V236.63H155V222.63ZM93.5878 138.397L148.956 233.161L161.044 226.098L105.676 131.334L93.5878 138.397ZM92.6318 77.9695V134.866H106.632V77.9695H92.6318Z" fill="#111111" mask="url(#path-1-inside-1_98_38)"/>
</g>
<g id="Subtract">
<mask id="path-3-inside-2_98_38" fill="white">
<path fill-rule="evenodd" clip-rule="evenodd" d="M60.0185 154.037L25.0186 213.941H128.352L93.3518 154.037H60.0185Z"/>
</mask>
<path fill-rule="evenodd" clip-rule="evenodd" d="M60.0185 154.037L25.0186 213.941H128.352L93.3518 154.037H60.0185Z" fill="#3B9EA2"/>
<path d="M25.0186 213.941L18.9746 210.409L12.8214 220.941H25.0186V213.941ZM60.0185 154.037V147.037H56.0012L53.9745 150.506L60.0185 154.037ZM128.352 213.941V220.941H140.549L134.396 210.409L128.352 213.941ZM93.3518 154.037L99.3958 150.506L97.3691 147.037H93.3518V154.037ZM31.0625 217.472L66.0625 157.569L53.9745 150.506L18.9746 210.409L31.0625 217.472ZM128.352 206.941H25.0186V220.941H128.352V206.941ZM87.3079 157.569L122.308 217.472L134.396 210.409L99.3958 150.506L87.3079 157.569ZM93.3518 147.037H60.0185V161.037H93.3518V147.037Z" fill="#111111" mask="url(#path-3-inside-2_98_38)"/>
</g>
<path id="Ellipse 1" d="M110.046 37.0829C110.046 45.0884 103.467 51.649 95.2628 51.649C87.0591 51.649 80.48 45.0884 80.48 37.0829C80.48 29.0775 87.0591 22.5168 95.2628 22.5168C103.467 22.5168 110.046 29.0775 110.046 37.0829Z" stroke="#111111" stroke-width="7"/>
<path id="Ellipse 2" d="M144.687 13.3119C144.687 18.6916 140.262 23.1237 134.715 23.1237C129.169 23.1237 124.744 18.6916 124.744 13.3119C124.744 7.93214 129.169 3.5 134.715 3.5C140.262 3.5 144.687 7.93214 144.687 13.3119Z" stroke="#111111" stroke-width="7"/>
<g id="Ellipse 3">
<mask id="path-7-inside-3_98_38" fill="white">
<ellipse cx="134.715" cy="51.3457" rx="5.7735" ry="5.70508"/>
</mask>
<path d="M133.488 51.3457C133.488 50.5521 134.117 50.0508 134.715 50.0508V64.0508C141.691 64.0508 147.488 58.441 147.488 51.3457H133.488ZM134.715 50.0508C135.313 50.0508 135.941 50.5521 135.941 51.3457H121.941C121.941 58.441 127.739 64.0508 134.715 64.0508V50.0508ZM135.941 51.3457C135.941 52.1393 135.313 52.6406 134.715 52.6406V38.6406C127.739 38.6406 121.941 44.2504 121.941 51.3457H135.941ZM134.715 52.6406C134.117 52.6406 133.488 52.1393 133.488 51.3457H147.488C147.488 44.2504 141.691 38.6406 134.715 38.6406V52.6406Z" fill="#111111" mask="url(#path-7-inside-3_98_38)"/>
</g>
</g>
</svg>
