<svg width="100" height="100" viewBox="0 0 100 100" fill="none" xmlns="http://www.w3.org/2000/svg">
<g id="entypo-social:twitter-with-circle">
<path id="Vector" d="M50 2C23.49 2 2 23.49 2 50C2 76.51 23.49 98 50 98C76.51 98 98 76.51 98 50C98 23.49 76.51 2 50 2ZM69.525 41.32C69.545 41.73 69.55 42.14 69.55 42.54C69.55 55.04 60.045 69.445 42.655 69.445C37.5165 69.4535 32.4848 67.9777 28.165 65.195C28.9 65.285 29.655 65.32 30.42 65.32C34.85 65.32 38.925 63.815 42.16 61.275C40.1886 61.2363 38.2784 60.5835 36.6956 59.4076C35.1128 58.2317 33.9362 56.5913 33.33 54.715C34.7458 54.9842 36.2043 54.9278 37.595 54.55C35.4552 54.1173 33.531 52.9579 32.1485 51.2683C30.7661 49.5788 30.0105 47.4631 30.01 45.28V45.165C31.285 45.87 32.745 46.3 34.295 46.35C32.289 45.0146 30.8689 42.9634 30.3252 40.6157C29.7815 38.268 30.1553 35.8013 31.37 33.72C33.7448 36.64 36.7063 39.0287 40.0628 40.7316C43.4194 42.4344 47.0961 43.4133 50.855 43.605C50.3771 41.5765 50.5828 39.447 51.44 37.5475C52.2973 35.648 53.7581 34.0849 55.5954 33.1013C57.4326 32.1177 59.5434 31.7686 61.5995 32.1084C63.6556 32.4481 65.5418 33.4576 66.965 34.98C69.0808 34.5614 71.1099 33.7853 72.965 32.685C72.2598 34.8757 70.7834 36.7359 68.81 37.92C70.6842 37.6943 72.5143 37.1904 74.24 36.425C72.9724 38.3245 71.3757 39.9822 69.525 41.32Z" fill="#429295"/>
</g>
</svg>
