<svg width="100" height="100" viewBox="0 0 100 100" fill="none" xmlns="http://www.w3.org/2000/svg">
<g id="entypo-social:youtube-with-circle">
<path id="Vector" d="M58.015 49.165L46.785 43.925C45.805 43.47 45 43.98 45 45.065V54.935C45 56.02 45.805 56.53 46.785 56.075L58.01 50.835C58.995 50.375 58.995 49.625 58.015 49.165ZM50 2C23.49 2 2 23.49 2 50C2 76.51 23.49 98 50 98C76.51 98 98 76.51 98 50C98 23.49 76.51 2 50 2ZM50 69.5C25.43 69.5 25 67.285 25 50C25 32.715 25.43 30.5 50 30.5C74.57 30.5 75 32.715 75 50C75 67.285 74.57 69.5 50 69.5Z" fill="#429295"/>
</g>
</svg>
